<svg width="504" height="504" viewBox="0 0 504 504" fill="none" xmlns="http://www.w3.org/2000/svg">
<rect width="504" height="504" rx="100" fill="#FF641A"/>
<g clip-path="url(#clip0_67_3400)">
<path d="M296.474 204C306.477 204 315.404 206.073 323.253 210.22C331.256 214.366 337.489 220.509 341.952 228.648C346.569 236.787 348.878 246.616 348.878 258.134V333H322.791V262.05C322.791 250.686 319.944 242.009 314.25 236.02C308.555 229.877 300.783 226.805 290.933 226.805C281.083 226.805 273.234 229.877 267.386 236.02C261.692 242.009 258.844 250.686 258.844 262.05V333H232.758V262.05C232.758 250.686 229.911 242.009 224.216 236.02C218.521 229.877 210.749 226.805 200.899 226.805C191.05 226.805 183.201 229.877 177.352 236.02C171.658 242.009 168.811 250.686 168.811 262.05V333H142.493V206.073H168.811V220.586C173.12 215.364 178.583 211.295 185.201 208.377C191.819 205.459 198.899 204 206.44 204C216.598 204 225.678 206.15 233.681 210.45C241.684 214.75 247.84 220.97 252.15 229.109C255.997 221.43 261.999 215.364 270.156 210.911C278.313 206.304 287.086 204 296.474 204Z" fill="white"/>
</g>
<path d="M398 171V215.521H384.468V209.457C383.096 211.426 381.223 213.021 378.849 214.245C376.528 215.415 373.942 216 371.094 216C367.717 216 364.736 215.255 362.151 213.766C359.566 212.223 357.561 210.016 356.137 207.144C354.712 204.271 354 200.894 354 197.011V171H367.453V195.176C367.453 198.154 368.218 200.468 369.748 202.117C371.278 203.766 373.336 204.59 375.921 204.59C378.559 204.59 380.643 203.766 382.173 202.117C383.703 200.468 384.468 198.154 384.468 195.176V171H398Z" fill="white"/>
<defs>
<clipPath id="clip0_67_3400">
<rect width="207" height="129" fill="white" transform="translate(142 204)"/>
</clipPath>
</defs>
</svg>
